<svg xmlns="http://www.w3.org/2000/svg" viewBox="0 0 24 24" width="128" height="128" color="#ffffff" fill="none">
    <defs />
    <path fill="currentColor" d="M4.492,6.014 C3.151,6.894 2.862,7.137 2.767,7.701 C2.721,7.972 2.762,8.227 2.96,8.613 C3.177,9.035 3.538,9.532 4.092,10.287 L9.429,17.566 C10.174,18.582 10.686,19.276 11.128,19.727 C11.559,20.168 11.805,20.25 12,20.25 C12.414,20.25 12.75,20.586 12.75,21 C12.75,21.414 12.414,21.75 12,21.75 C11.212,21.75 10.601,21.333 10.056,20.777 C9.53,20.24 8.956,19.457 8.255,18.501 L2.849,11.128 C2.338,10.431 1.903,9.839 1.626,9.299 C1.324,8.713 1.174,8.127 1.288,7.452 C1.502,6.179 2.404,5.588 3.521,4.856 L3.668,4.76 C6.087,3.17 8.942,2.25 12,2.25 C15.058,2.25 17.913,3.17 20.332,4.76 L20.479,4.856 C21.596,5.588 22.498,6.179 22.712,7.452 C22.826,8.127 22.676,8.713 22.374,9.299 C22.097,9.839 21.662,10.431 21.151,11.128 L21.112,11.181 L19.595,13.156 C19.342,13.484 18.872,13.546 18.543,13.293 C18.215,13.041 18.153,12.57 18.405,12.242 L19.913,10.28 C20.464,9.529 20.824,9.033 21.04,8.613 C21.239,8.227 21.279,7.972 21.233,7.701 C21.138,7.137 20.849,6.894 19.509,6.014 C17.322,4.576 14.751,3.75 12,3.75 C9.249,3.75 6.678,4.576 4.492,6.014 Z M15.53,14.47 L18,16.939 L20.47,14.47 C20.763,14.177 21.237,14.177 21.53,14.47 C21.823,14.763 21.823,15.237 21.53,15.53 L19.061,18 L21.53,20.47 C21.823,20.763 21.823,21.237 21.53,21.53 C21.237,21.823 20.763,21.823 20.47,21.53 L18,19.061 L15.53,21.53 C15.237,21.823 14.763,21.823 14.47,21.53 C14.177,21.237 14.177,20.763 14.47,20.47 L16.939,18 L14.47,15.53 C14.177,15.237 14.177,14.763 14.47,14.47 C14.763,14.177 15.237,14.177 15.53,14.47 Z" />
</svg>