<svg xmlns="http://www.w3.org/2000/svg" viewBox="0 0 24 24" width="128" height="128" color="#ffffff" fill="none">
    <defs />
    <path fill="currentColor" d="M20.846,16.751 C19.425,16.751 18.642,16.751 17.89,16.354 C17.64,16.222 17.419,16.059 17.2,15.854 L15.942,17.071 C14.27,18.687 13.352,19.574 12.078,19.726 C12.027,19.732 11.972,19.737 11.916,19.742 L11.915,19.742 L11.898,19.742 C11.823,19.749 11.749,19.751 11.675,19.751 L11.674,19.751 C10.489,19.751 9.425,19.065 7.581,17.876 L7.578,17.874 L7.572,17.87 C6.669,17.289 6.217,16.998 5.775,16.864 L5.703,16.842 C5.255,16.718 4.709,16.718 3.625,16.718 L2.004,16.718 C1.59,16.718 1.254,16.382 1.254,15.968 C1.254,15.554 1.59,15.218 2.004,15.218 L3.625,15.218 C4.852,15.218 5.468,15.218 6.115,15.4 L6.205,15.427 C6.853,15.623 7.396,15.973 8.379,16.606 L8.385,16.61 L8.388,16.612 C10.136,17.739 11.011,18.303 11.791,18.247 L11.792,18.247 C11.827,18.244 11.861,18.241 11.896,18.237 C12.673,18.144 13.416,17.427 14.894,15.998 L16.226,14.71 C16.083,14.521 15.931,14.316 15.765,14.091 L15.757,14.081 L13.436,10.947 C13.203,10.631 13.1,10.549 13.054,10.535 C13.054,10.535 13.042,10.536 13.017,10.544 C12.795,10.616 12.492,10.873 12.225,11.1 C12.089,11.216 11.947,11.336 11.806,11.442 C10.889,12.131 9.661,12 8.886,11.128 C8.038,10.173 8.038,8.677 8.886,7.723 L10.207,6.235 L9.323,5.868 C8.653,5.59 7.913,5.82 7.392,6.47 C6.738,7.284 5.819,7.751 4.869,7.751 L2.004,7.751 C1.59,7.751 1.254,7.415 1.254,7.001 C1.254,6.587 1.59,6.251 2.004,6.251 L4.869,6.251 C5.369,6.251 5.85,5.995 6.222,5.531 C7.163,4.358 8.606,3.946 9.898,4.483 L11.291,5.062 C11.305,5.068 11.319,5.074 11.332,5.081 C11.687,4.79 12.091,4.55 12.588,4.413 C13.395,4.192 14.276,4.245 15.053,4.292 L15.053,4.292 L15.058,4.292 L15.157,4.298 C16.005,4.35 16.814,4.726 17.436,5.356 C18.126,6.052 18.71,6.484 19.485,6.484 L22.002,6.484 C22.416,6.484 22.752,6.82 22.752,7.234 C22.752,7.648 22.416,7.984 22.002,7.984 L19.485,7.984 C18.117,7.984 17.179,7.228 16.369,6.411 C16.006,6.043 15.543,5.825 15.064,5.796 L14.964,5.79 C14.302,5.749 13.552,5.704 12.983,5.86 C12.403,6.02 11.971,6.506 11.47,7.07 L10.004,8.72 C9.664,9.103 9.664,9.75 10.004,10.133 C10.254,10.415 10.615,10.459 10.902,10.244 C11,10.171 11.109,10.079 11.224,9.981 C11.233,9.973 11.242,9.966 11.251,9.958 C11.624,9.641 12.048,9.281 12.552,9.118 C13.676,8.755 14.348,9.663 14.637,10.054 L14.639,10.056 L16.959,13.189 L16.96,13.191 C17.751,14.26 18.148,14.797 18.586,15.028 C18.993,15.243 19.538,15.251 20.842,15.251 L22,15.251 C22.414,15.251 22.75,15.587 22.75,16.001 C22.75,16.415 22.414,16.751 22,16.751 Z" />
</svg>